<?xml version="1.0" standalone="no"?>
<!DOCTYPE svg PUBLIC "-//W3C//DTD SVG 20010904//EN"
 "http://www.w3.org/TR/2001/REC-SVG-20010904/DTD/svg10.dtd">
<svg version="1.0" xmlns="http://www.w3.org/2000/svg"
 width="512.000000pt" height="512.000000pt" viewBox="0 0 512.000000 512.000000"
 preserveAspectRatio="xMidYMid meet">
<metadata>
Created by potrace 1.14, written by Peter Selinger 2001-2017
</metadata>
<g transform="translate(0.000000,512.000000) scale(0.100000,-0.100000)"
fill="#000000" stroke="none">
<path d="M0 2560 l0 -2560 2560 0 2560 0 0 2560 0 2560 -2560 0 -2560 0 0
-2560z m2840 1676 c359 -77 707 -277 926 -534 273 -320 433 -748 434 -1164 0
-67 4 -119 10 -123 6 -3 11 -32 12 -63 l2 -57 6 70 c4 39 7 60 8 47 3 -37 27
-20 30 21 2 21 7 35 13 32 5 -4 6 -48 3 -103 -4 -72 -2 -94 6 -86 6 6 14 30
17 53 4 29 10 41 22 40 12 0 12 -2 2 -6 -11 -5 -11 -7 0 -14 10 -6 11 -9 2 -9
-7 0 -13 -12 -13 -27 0 -43 -12 -103 -19 -99 -7 5 -4 -105 3 -147 4 -20 2 -26
-6 -21 -8 5 -9 2 -5 -10 4 -10 7 -30 8 -44 1 -19 4 -13 10 18 5 25 7 55 4 68
-3 13 -1 22 6 22 7 0 10 13 7 35 -2 19 0 35 4 35 4 0 8 -8 9 -17 0 -12 2 -13
6 -5 3 7 -3 23 -13 34 -19 21 -19 21 2 10 20 -11 21 -8 33 71 6 45 13 99 15
119 4 66 14 52 13 -19 -1 -37 -5 -70 -8 -73 -4 -3 -9 -30 -13 -60 -8 -72 -17
-111 -25 -106 -3 2 -7 -12 -8 -33 -6 -163 -180 -544 -334 -735 -27 -33 -49
-65 -49 -71 1 -9 15 5 64 65 32 40 146 212 146 222 0 5 4 7 9 4 5 -3 8 0 8 7
-1 6 22 59 51 117 28 58 52 111 52 118 0 6 4 12 9 12 5 0 12 10 14 23 3 16 5
13 6 -10 0 -18 -3 -33 -8 -33 -5 0 -12 -18 -16 -40 -4 -22 -10 -40 -13 -40
-11 0 -34 -59 -27 -70 3 -5 2 -10 -4 -10 -13 0 -44 -58 -36 -69 2 -5 -2 -11
-10 -15 -8 -3 -12 -12 -9 -21 4 -10 0 -15 -10 -15 -19 0 -21 -21 -4 -38 9 -9
8 -12 -7 -12 -17 0 -18 -2 -5 -10 12 -8 11 -10 -7 -10 -13 0 -23 -4 -23 -10 0
-5 6 -7 13 -5 6 3 18 1 26 -4 16 -10 3 -34 -79 -147 -194 -263 -468 -475 -777
-602 -97 -40 -151 -55 -108 -30 11 7 26 18 33 25 7 7 22 13 32 13 10 0 21 4
24 9 3 4 -14 4 -39 -2 -24 -6 -43 -15 -42 -21 1 -7 -12 -10 -35 -8 -42 4 -50
-9 -15 -25 20 -9 15 -13 -48 -32 -38 -12 -90 -24 -115 -26 -38 -4 -35 -2 20
11 62 15 115 42 60 30 -14 -3 -63 -12 -110 -21 -110 -21 -122 -26 -90 -35 24
-8 24 -8 3 -9 -31 -1 -38 2 -35 15 1 7 -10 9 -30 5 -26 -4 -29 -6 -10 -9 34
-5 26 -20 -15 -29 -74 -16 -480 -8 -588 11 -235 40 -377 86 -590 191 -246 120
-452 290 -668 550 -82 99 -253 395 -228 395 4 0 18 -22 31 -49 13 -28 29 -52
37 -55 8 -3 1 17 -17 49 -16 29 -26 56 -21 59 4 3 17 -12 27 -34 10 -22 22
-40 26 -40 4 0 -6 26 -22 58 -29 56 -56 117 -61 137 -3 10 -13 23 -39 52 -10
11 -11 18 -4 20 13 4 -3 84 -18 94 -9 6 -17 73 -21 171 -1 20 -5 40 -10 44
-11 12 -8 21 9 28 11 4 14 1 10 -12 -3 -9 -1 -24 4 -32 5 -9 5 -19 -2 -27 -7
-9 -7 -13 1 -13 7 0 11 -8 9 -17 -1 -10 0 -23 4 -29 18 -28 34 -94 26 -102 -6
-6 -5 -13 3 -17 8 -6 10 -4 4 6 -5 9 -5 11 2 4 6 -5 16 -27 23 -47 6 -21 15
-38 20 -38 5 0 4 15 -1 33 -56 180 -80 304 -78 402 2 73 19 79 18 7 0 -26 2
-54 4 -62 2 -8 7 -33 11 -55 13 -64 32 -116 42 -113 5 2 7 8 5 13 -12 32 -20
99 -19 165 0 62 2 69 9 40 4 -20 5 13 1 75 -11 181 -10 309 2 324 8 11 8 13
-1 8 -7 -5 -9 0 -6 13 15 56 23 -11 23 -182 0 -105 2 -189 5 -186 7 7 14 62
16 125 2 55 18 75 20 26 1 -23 2 -24 6 -6 2 12 -1 32 -7 44 -8 15 -9 19 -1 15
14 -9 14 0 1 24 -7 13 -7 21 0 25 5 3 10 12 10 18 0 7 -4 6 -10 -3 -7 -12 -9
-10 -7 7 0 12 5 19 9 17 4 -3 8 4 8 15 0 12 -4 21 -8 21 -7 0 -2 69 6 95 1 3
2 17 2 31 0 24 1 24 16 9 14 -13 16 -29 10 -87 -3 -39 -9 -83 -11 -97 -5 -25
-5 -25 4 -3 6 12 12 22 13 22 2 0 1 -28 0 -62 -3 -41 -7 -56 -13 -47 -6 9 -8
-2 -6 -33 1 -33 6 -48 16 -48 11 0 11 -3 0 -16 -10 -13 -10 -17 0 -24 9 -5 12
-20 9 -41 -3 -22 0 -38 10 -48 13 -13 14 -13 8 4 -3 11 -8 107 -10 213 -4 146
-2 192 7 192 9 0 9 2 0 8 -8 5 -10 21 -6 46 3 21 9 32 13 26 4 -6 19 42 35
107 63 270 186 517 357 716 33 39 55 74 52 80 -4 7 -3 9 1 4 13 -11 44 23 38
41 -4 15 -3 15 6 2 10 -14 16 -7 12 13 -1 5 3 6 8 3 5 -4 38 19 73 49 220 194
520 331 818 374 41 6 86 13 100 15 14 3 99 3 190 1 127 -3 192 -10 280 -29z
m-2073 -1351 c0 -8 -4 -15 -9 -15 -4 0 -8 7 -8 15 0 8 4 15 8 15 5 0 9 -7 9
-15z m113 5 c0 -5 -5 -10 -11 -10 -5 0 -7 5 -4 10 3 6 8 10 11 10 2 0 4 -4 4
-10z m-120 -80 c0 -11 -4 -20 -8 -20 -4 0 -8 9 -9 20 -1 11 2 20 8 20 5 0 9
-9 9 -20z m-295 -30 c3 -5 1 -10 -4 -10 -6 0 -11 5 -11 10 0 6 2 10 4 10 3 0
8 -4 11 -10z m5 -41 c0 -6 -4 -7 -10 -4 -5 3 -10 11 -10 16 0 6 5 7 10 4 6 -3
10 -11 10 -16z m0 -57 c0 -24 -26 -24 -27 0 -1 10 5 18 13 18 8 0 14 -8 14
-18z m0 -62 c0 -21 -5 -30 -16 -30 -13 0 -14 3 -5 14 9 11 9 15 0 18 -7 2 -9
10 -5 16 13 22 26 13 26 -18z m-40 2 c0 -5 -7 -9 -15 -9 -8 0 -12 4 -9 9 3 4
9 8 15 8 5 0 9 -4 9 -8z m207 -54 c-2 -13 -4 -3 -4 22 0 25 2 35 4 23 2 -13 2
-33 0 -45z m-207 22 c0 -5 -5 -10 -11 -10 -5 0 -7 5 -4 10 3 6 8 10 11 10 2 0
4 -4 4 -10z m40 -23 c0 -8 -7 -14 -15 -14 -16 0 -19 9 -8 20 11 11 23 8 23 -6z
m-3 -34 c2 -6 -7 -8 -22 -6 -14 3 -25 9 -25 14 0 12 43 5 47 -8z m170 -130
c-2 -27 -3 -5 -3 47 0 52 1 74 3 48 2 -27 2 -69 0 -95z m65 112 c3 -13 1 -22
-3 -19 -9 5 -13 44 -5 44 2 0 6 -11 8 -25z m-237 -16 c2 -9 6 -31 10 -48 4
-21 3 -31 -5 -31 -9 0 -9 -4 -2 -13 11 -13 24 -112 26 -202 0 -27 5 -53 9 -56
5 -3 2 -9 -7 -12 -14 -6 -18 -1 -15 19 0 4 -5 10 -11 14 -7 4 -9 13 -5 20 6 9
9 9 16 -1 5 -8 9 -9 9 -4 0 6 -9 18 -20 28 -21 18 -27 47 -9 47 5 0 7 5 4 10
-4 6 -11 7 -17 4 -7 -5 -9 -1 -5 9 3 9 1 18 -6 20 -7 3 -1 9 13 15 25 11 25
11 2 11 -14 1 -21 5 -17 12 4 6 13 8 21 5 8 -3 14 -1 14 4 0 6 -9 10 -19 10
-32 0 -35 20 -4 21 24 2 25 2 5 6 -17 3 -21 9 -17 23 5 15 0 21 -20 26 -26 7
-26 16 0 20 8 1 15 -2 15 -7 0 -6 5 -7 12 -3 8 5 4 11 -14 18 -20 9 -24 15
-17 32 9 25 51 27 54 3z m212 -66 c-3 -10 -5 -2 -5 17 0 19 2 27 5 18 2 -10 2
-26 0 -35z m-260 -39 c-9 -9 -28 6 -21 18 4 6 10 6 17 -1 6 -6 8 -13 4 -17z
m1 -59 c-3 -3 -9 2 -12 12 -6 14 -5 15 5 6 7 -7 10 -15 7 -18z m232 11 c0 -3
-4 -8 -10 -11 -5 -3 -10 -1 -10 4 0 6 5 11 10 11 6 0 10 -2 10 -4z m3717 -28
c-3 -7 -5 -2 -5 12 0 14 2 19 5 13 2 -7 2 -19 0 -25z m-3717 -39 c0 -17 -4
-28 -9 -24 -5 3 -9 19 -9 35 1 38 18 28 18 -11z m3934 6 c3 -9 0 -15 -9 -15
-9 0 -12 6 -9 15 4 8 7 15 9 15 2 0 5 -7 9 -15z m-240 -31 c3 -8 2 -12 -4 -9
-6 3 -10 10 -10 16 0 14 7 11 14 -7z m-3907 -69 c0 -8 -4 -12 -9 -9 -4 3 -8 9
-8 15 0 5 4 9 8 9 5 0 9 -7 9 -15z m4143 -29 c0 -3 -4 -8 -10 -11 -5 -3 -10
-1 -10 4 0 6 5 11 10 11 6 0 10 -2 10 -4z m7 -32 c-3 -3 -12 -4 -19 -1 -8 3
-5 6 6 6 11 1 17 -2 13 -5z m-4093 -16 c-5 -9 -2 -9 9 1 15 11 17 11 17 -1 0
-22 -12 -29 -27 -17 -16 14 -17 29 -2 29 5 0 7 -6 3 -12z m4076 -8 c0 -5 -2
-10 -4 -10 -3 0 -8 5 -11 10 -3 6 -1 10 4 10 6 0 11 -4 11 -10z m28 -4 c-7 -8
-15 -12 -17 -11 -5 6 10 25 20 25 5 0 4 -6 -3 -14z m-221 -28 c-3 -7 -5 -2 -5
12 0 14 2 19 5 13 2 -7 2 -19 0 -25z m150 0 c-3 -8 -6 -5 -6 6 -1 11 2 17 5
13 3 -3 4 -12 1 -19z m-3992 -36 c4 -20 13 -53 20 -72 8 -19 19 -55 26 -80 6
-25 14 -49 19 -55 4 -5 17 -37 29 -70 74 -200 228 -444 389 -616 39 -42 69
-79 67 -83 -3 -3 -2 -4 2 -1 10 8 83 -66 77 -77 -3 -5 -1 -7 4 -6 5 2 41 -20
78 -49 329 -247 639 -377 1024 -429 125 -16 372 -18 508 -3 327 35 654 154
927 337 100 67 349 302 427 402 122 158 231 353 298 532 12 32 26 60 31 64 5
3 7 9 4 14 -6 10 21 76 35 85 5 3 10 2 10 -4 0 -5 -4 -12 -10 -16 -5 -3 -6
-13 -3 -22 4 -11 3 -14 -5 -9 -7 4 -12 2 -12 -3 0 -6 5 -11 10 -11 6 0 10 -5
10 -11 0 -5 -4 -8 -8 -5 -10 6 -21 -15 -46 -81 -15 -40 -15 -43 2 -44 14 0 13
-2 -4 -9 -21 -8 -40 -50 -23 -50 5 0 9 5 9 10 0 6 5 10 10 10 6 0 8 -13 5 -32
-4 -18 -3 -30 0 -26 4 3 8 14 9 24 2 10 8 20 15 22 8 3 7 -8 -4 -34 -9 -22
-19 -44 -21 -50 -3 -6 -17 -15 -32 -22 -15 -6 -20 -10 -12 -9 9 1 17 -1 18 -5
1 -5 0 -7 -2 -5 -2 1 -13 -7 -25 -17 -21 -19 -27 -41 -13 -49 4 -2 1 -2 -5 -1
-7 2 -13 -1 -13 -6 0 -5 -8 -6 -17 -3 -16 6 -17 5 -3 -13 8 -10 10 -16 5 -11
-5 4 -15 -7 -22 -25 -9 -21 -10 -34 -4 -36 14 -5 -39 -104 -70 -132 -3 -3 -18
-22 -33 -42 -16 -21 -33 -38 -38 -38 -5 0 -2 7 6 16 9 8 16 20 16 25 0 13 -20
-7 -44 -45 -10 -16 -13 -25 -6 -21 9 6 9 3 1 -14 -7 -11 -14 -21 -17 -21 -3 0
-3 4 1 9 3 5 1 12 -4 15 -5 3 -12 -2 -15 -11 -4 -9 -2 -20 5 -23 10 -7 -25
-24 -43 -21 -4 0 -5 -5 -2 -13 3 -7 -8 -28 -23 -47 -42 -49 -125 -124 -134
-122 -5 2 -9 -4 -9 -13 0 -12 -3 -14 -13 -6 -8 7 -18 6 -32 -5 -20 -15 -20
-15 2 -8 13 3 23 4 23 1 0 -8 -141 -111 -212 -155 -471 -286 -1052 -380 -1618
-262 -307 64 -619 212 -865 410 -93 75 -242 222 -299 296 -26 33 -52 67 -59
75 -29 34 -95 127 -106 147 -8 17 -8 22 4 27 8 3 15 1 15 -4 0 -6 5 -10 11
-10 6 0 9 6 6 13 -2 6 -13 12 -25 12 -24 0 -52 33 -45 52 3 7 0 19 -6 27 -6 7
-8 15 -5 19 3 3 -3 8 -14 11 -14 5 -18 13 -14 31 4 21 1 24 -14 18 -17 -6 -18
-5 -4 12 8 10 10 16 4 12 -14 -8 -47 67 -46 105 0 22 -3 26 -23 23 -14 -1 -22
1 -20 6 3 4 1 10 -5 14 -6 4 -7 11 -4 17 4 6 0 14 -7 19 -7 4 -10 11 -6 15 3
4 13 1 22 -6 13 -11 14 -10 9 4 -3 9 -11 16 -18 16 -7 0 -11 12 -11 28 2 39
-8 51 -17 22 -6 -18 -6 -15 -2 10 3 19 7 43 9 53 2 10 -2 17 -11 17 -11 0 -14
-6 -9 -22 6 -18 4 -20 -5 -12 -8 8 -8 21 -2 45 6 19 11 26 11 17 1 -11 6 -15
16 -12 13 5 12 10 -6 25 -16 14 -18 19 -7 19 11 0 14 7 10 25 -2 14 -11 25
-18 25 -22 0 -16 16 6 17 15 1 21 -6 25 -35z m4020 -22 c3 -5 1 -10 -4 -10 -6
0 -11 5 -11 10 0 6 2 10 4 10 3 0 8 -4 11 -10z m-3925 -14 c0 -3 -4 -8 -10
-11 -5 -3 -10 -1 -10 4 0 6 5 11 10 11 6 0 10 -2 10 -4z m3805 -6 c3 -5 1 -10
-4 -10 -6 0 -11 5 -11 10 0 6 2 10 4 10 3 0 8 -4 11 -10z m119 -8 c3 -5 -1 -9
-9 -9 -8 0 -15 4 -15 9 0 4 4 8 9 8 6 0 12 -4 15 -8z m-24 -27 c0 -12 -19 -12
-23 0 -4 9 -1 12 9 8 7 -3 14 -7 14 -8z m-169 -14 c-7 -5 -10 -14 -7 -20 4 -6
2 -11 -4 -11 -6 0 -9 -4 -6 -8 2 -4 1 -14 -5 -22 -7 -13 -9 -12 -9 2 0 28 19
68 32 68 10 0 10 -2 -1 -9z m-3691 -76 c7 -22 21 -58 30 -80 38 -86 35 -105
-3 -27 -25 48 -44 102 -52 142 -7 35 11 11 25 -35z m3685 -23 c-3 -3 -11 0
-18 7 -9 10 -8 11 6 5 10 -3 15 -9 12 -12z m-3647 -23 c-3 -8 -7 -3 -11 10 -4
17 -3 21 5 13 5 -5 8 -16 6 -23z m3786 -24 c3 -8 1 -15 -4 -15 -6 0 -10 7 -10
15 0 8 2 15 4 15 2 0 6 -7 10 -15z m31 3 c-31 -102 -38 -119 -46 -111 -6 6 -1
25 10 49 11 21 22 47 25 57 3 9 8 17 10 17 3 0 4 -6 1 -12z m-164 -25 c-12
-20 -14 -14 -5 12 4 9 9 14 11 11 3 -2 0 -13 -6 -23z m129 -7 c0 -2 -3 -11 -6
-20 -9 -23 -23 -20 -21 4 1 11 7 20 14 20 7 0 13 -2 13 -4z m-3738 -50 c-3 -5
-9 -1 -13 10 -12 31 -10 39 5 19 8 -11 12 -24 8 -29z m3578 33 c0 -5 5 -7 11
-3 13 8 4 -28 -17 -66 l-14 -25 4 27 c3 15 8 32 11 38 4 6 1 17 -5 25 -9 11
-9 15 -1 15 6 0 11 -5 11 -11z m-3753 -51 c-3 -8 -6 -5 -6 6 -1 11 2 17 5 13
3 -3 4 -12 1 -19z m3710 -95 c-18 -41 -57 -109 -57 -100 0 4 7 21 15 36 8 16
12 31 10 35 -3 3 -2 4 2 1 4 -3 12 8 19 25 7 16 15 30 18 30 3 0 0 -12 -7 -27z
m250 12 c0 -8 -4 -15 -7 -15 -4 0 -10 -13 -13 -30 -4 -16 -11 -30 -17 -30 -10
0 -1 31 20 71 13 23 17 24 17 4z m-4019 -100 c-3 -3 -9 2 -12 12 -6 14 -5 15
5 6 7 -7 10 -15 7 -18z m3976 0 c-4 -8 -8 -15 -10 -15 -2 0 -4 7 -4 15 0 8 4
15 10 15 5 0 7 -7 4 -15z m-294 1 c0 -3 -4 -8 -10 -11 -5 -3 -10 -1 -10 4 0 6
5 11 10 11 6 0 10 -2 10 -4z m17 -46 c-17 -28 -27 -25 -14 4 7 13 15 22 19 20
4 -3 2 -14 -5 -24z m-3673 9 c-3 -6 -1 -15 6 -19 7 -4 10 -14 8 -21 -3 -10 -8
-7 -17 9 -11 20 -8 42 5 42 3 0 2 -5 -2 -11z m78 -46 c-6 -2 -10 -9 -6 -14 3
-5 1 -9 -4 -9 -6 0 -12 7 -16 15 -4 11 1 15 17 14 12 0 16 -3 9 -6z m3731 -18
c-3 -9 -8 -14 -10 -11 -3 3 -2 9 2 15 9 16 15 13 8 -4z m-3684 -67 c4 7 21
-10 41 -41 69 -106 143 -200 230 -291 49 -51 86 -97 82 -101 -4 -5 -2 -6 3 -3
6 3 37 -18 70 -48 51 -45 57 -54 37 -54 -14 0 -21 4 -16 11 4 8 0 9 -15 4 -22
-7 -30 9 -8 19 6 4 3 5 -8 3 -23 -4 -61 29 -42 36 18 6 4 17 -26 19 -16 1 -28
10 -31 22 -3 11 -8 17 -12 13 -4 -3 -20 8 -35 26 -16 17 -24 33 -19 35 6 2 10
8 10 13 0 6 -4 8 -9 5 -19 -12 -42 6 -35 27 5 15 3 19 -9 14 -9 -3 -21 2 -29
10 -11 15 -11 16 6 10 16 -6 17 -5 7 7 -7 8 -18 13 -25 10 -6 -2 -20 3 -31 11
-19 16 -19 16 4 9 16 -4 21 -3 17 5 -4 6 -17 11 -29 11 -18 0 -19 2 -7 10 12
8 10 10 -9 10 -13 0 -21 3 -18 7 4 3 -2 20 -13 38 -11 18 -18 35 -15 38 3 4 2
5 -2 2 -8 -6 -33 14 -33 27 0 5 6 6 13 3 6 -4 4 0 -6 8 -14 11 -15 16 -5 20 8
3 6 6 -5 6 -10 1 -15 6 -12 11 3 6 0 10 -8 10 -15 0 -28 22 -26 43 1 7 4 3 6
-7 3 -12 8 -15 12 -8z m-29 -63 c0 -5 -5 -3 -10 5 -5 8 -10 20 -10 25 0 6 5 3
10 -5 5 -8 10 -19 10 -25z m23 -25 c3 -11 1 -18 -4 -14 -5 3 -9 12 -9 20 0 20
7 17 13 -6z m3669 -7 c-21 -48 -47 -93 -54 -93 -11 0 2 31 22 55 9 11 20 28
23 38 4 9 9 17 11 17 3 0 2 -8 -2 -17z m-80 -152 c-5 -3 -11 -14 -15 -24 -4
-10 -11 -15 -17 -12 -5 3 -10 2 -10 -4 0 -5 8 -11 17 -13 13 -2 8 -8 -17 -20
-29 -15 -28 -24 3 -19 12 2 8 -17 -9 -33 -21 -21 -27 -20 -19 4 5 15 2 20 -12
20 -10 0 -14 -4 -8 -8 6 -4 10 -17 10 -28 -1 -27 -140 -168 -157 -158 -7 5 -8
3 -4 -5 5 -8 -8 -26 -35 -49 -70 -61 -163 -123 -175 -118 -7 3 -14 -3 -17 -13
-11 -43 -305 -187 -530 -260 -252 -81 -452 -112 -731 -112 -360 0 -691 77
-1021 238 -49 25 -97 50 -105 57 -8 6 -27 18 -42 26 -16 7 -26 15 -23 18 2 3
10 0 17 -6 7 -5 22 -12 33 -14 11 -1 23 -7 27 -13 4 -5 8 0 8 12 0 16 -5 20
-20 16 -22 -6 -28 12 -7 20 6 3 2 6 -11 6 -15 1 -21 5 -16 13 4 7 3 8 -4 4 -7
-4 -12 -1 -12 8 0 9 -7 16 -15 16 -8 0 -15 -6 -15 -12 0 -9 -3 -8 -9 2 -6 8
-7 18 -5 22 3 5 -6 6 -21 2 -22 -5 -26 -3 -23 11 2 13 -5 19 -24 22 -21 3 -26
0 -22 -11 3 -9 13 -18 22 -21 21 -6 87 -64 81 -70 -6 -6 -109 65 -109 75 0 5
-3 15 -6 24 -4 11 -1 16 10 16 9 0 16 5 16 10 0 6 -10 10 -21 10 -17 0 -20 -5
-17 -25 3 -14 2 -25 -2 -25 -12 0 -64 60 -57 66 3 4 0 13 -8 20 -16 16 -29 19
-20 4 12 -20 -12 -9 -44 19 -30 27 -31 29 -11 34 14 3 25 -1 32 -12 9 -15 18
-17 45 -11 31 7 41 3 109 -46 240 -172 557 -315 817 -368 363 -75 772 -60
1116 39 307 88 580 238 829 453 34 29 59 45 55 35 -6 -15 -4 -16 9 -6 8 7 17
10 20 8 3 -3 3 7 0 21 l-5 28 23 -22 c28 -25 41 -21 15 5 -11 11 -14 18 -6 21
6 2 11 10 11 17 0 8 5 17 12 21 8 5 9 1 5 -12 -7 -19 -7 -19 8 0 8 10 16 23
17 28 2 5 13 10 25 10 13 2 19 7 16 16 -5 11 -7 11 -14 0 -7 -11 -9 -11 -9 0
0 20 28 44 42 36 8 -5 9 -2 5 9 -3 10 -2 17 4 17 6 0 7 6 3 13 -5 8 -2 7 10
-2 9 -8 13 -17 8 -20z m-3456 -26 c14 -14 21 -25 16 -25 -5 0 -19 11 -32 25
-13 14 -20 25 -16 25 4 0 18 -11 32 -25z m31 -57 c-3 -8 -6 -5 -6 6 -1 11 2
17 5 13 3 -3 4 -12 1 -19z m70 -44 c-3 -3 -12 -4 -19 -1 -8 3 -5 6 6 6 11 1
17 -2 13 -5z m9 -23 c-4 -5 -1 -12 4 -14 6 -3 5 -4 -2 -3 -15 3 -23 26 -8 26
6 0 9 -4 6 -9z m46 -41 c2 -5 14 -11 28 -12 28 -3 48 -37 28 -49 -16 -10 -40
10 -34 28 3 8 -2 13 -13 13 -10 0 -21 7 -25 15 -3 8 -1 15 3 15 5 0 11 -4 13
-10z m88 -65 c-7 -8 -17 -15 -22 -15 -6 0 -5 7 2 15 7 8 17 15 22 15 6 0 5 -7
-2 -15z"/>
<path d="M2340 4144 c-493 -62 -919 -361 -1166 -819 -75 -141 -129 -299 -165
-490 -20 -105 -17 -397 5 -520 19 -107 32 -138 30 -74 -1 22 -4 42 -8 46 -3 3
-7 40 -7 82 -1 56 -3 68 -9 46 -7 -27 -8 -25 -9 18 -1 30 3 46 9 42 6 -3 10 1
10 10 0 9 5 13 10 10 6 -3 10 3 10 14 0 12 -6 21 -12 21 -9 0 -8 4 2 10 10 6
11 10 3 10 -7 0 -13 5 -13 11 0 5 5 7 10 4 6 -3 10 3 10 14 0 12 5 21 10 21 6
0 11 -24 11 -52 1 -34 4 -42 6 -23 3 16 10 33 16 37 9 6 9 8 0 8 -8 0 -13 14
-13 38 0 27 3 33 10 22 8 -12 10 -10 10 10 0 14 5 32 11 40 8 11 9 7 4 -16 -4
-22 -1 -35 10 -44 9 -7 15 -9 14 -4 -9 34 28 244 43 244 4 0 5 7 2 15 -4 8 -1
15 5 15 6 0 11 -12 12 -27 0 -16 5 -37 10 -48 8 -17 9 -15 5 9 -3 22 1 30 15
33 11 3 18 12 17 21 -2 8 3 17 11 20 11 3 12 0 6 -14 -4 -11 -7 -27 -7 -37 1
-15 -2 -16 -13 -7 -13 11 -13 8 -4 -19 6 -17 13 -31 16 -31 3 0 3 7 -1 15 -3
8 -2 15 3 15 5 0 12 17 16 38 14 68 15 93 5 87 -15 -9 -12 9 6 31 8 10 13 14
10 7 -3 -6 -2 -22 3 -35 6 -14 10 -17 10 -7 1 8 8 24 16 35 11 14 10 5 -4 -32
-24 -62 -41 -154 -30 -154 5 0 9 5 9 11 0 32 33 119 45 119 9 0 12 6 9 15 -3
8 2 37 11 65 9 28 18 56 19 63 6 35 61 127 73 123 7 -3 13 -1 13 3 0 5 -4 11
-10 13 -5 2 12 31 39 65 26 35 51 60 54 56 4 -3 7 1 7 9 0 9 7 22 17 29 15 13
15 11 -1 -19 -9 -18 -26 -42 -37 -53 -10 -10 -18 -22 -18 -26 1 -5 -7 -13 -18
-18 -11 -6 -18 -15 -16 -21 2 -6 -6 -32 -18 -59 -16 -35 -23 -44 -30 -34 -7
12 -9 11 -9 -2 0 -8 -8 -24 -17 -35 -10 -10 -19 -32 -20 -48 -1 -16 -5 -37 -9
-45 -10 -24 -12 -51 -2 -45 4 3 8 12 8 20 0 8 4 14 8 14 4 0 9 13 10 29 3 39
24 85 41 89 9 2 11 -3 6 -15 -4 -10 -10 -24 -13 -32 -10 -26 16 -2 31 28 12
25 12 29 1 24 -16 -6 -19 13 -3 22 5 4 22 31 36 61 14 30 29 54 34 54 5 0 14
12 19 26 6 14 14 23 19 19 5 -3 13 0 17 6 4 8 3 9 -4 5 -7 -4 -12 -2 -12 3 0
6 5 11 11 11 5 0 7 5 4 10 -3 6 4 10 17 10 17 0 19 3 9 9 -11 7 -10 15 9 41
12 17 25 29 28 26 3 -4 -5 -17 -18 -31 -20 -21 -21 -25 -6 -25 9 0 19 7 23 16
4 12 8 13 14 3 4 -7 3 -19 -3 -26 -16 -20 -3 -26 16 -8 12 12 13 21 6 35 -7
13 -6 19 4 23 10 4 12 0 9 -14 -7 -26 12 -24 32 4 l17 22 -7 -25 c-6 -23 -5
-24 9 -7 8 11 12 26 9 35 -4 13 -3 14 5 3 11 -15 36 -5 67 29 19 21 19 21 -1
14 -17 -7 -18 -6 -4 11 38 48 99 95 123 95 9 0 18 6 20 13 3 6 6 4 6 -7 1 -18
2 -18 19 -3 22 20 39 23 24 5 -6 -7 -10 -17 -10 -23 1 -10 -73 -57 -80 -51 -2
2 -14 -6 -26 -18 -13 -11 -34 -29 -47 -38 -43 -33 -10 -18 38 16 105 74 283
145 408 163 25 3 45 8 45 12 0 11 312 2 362 -10 27 -6 55 -8 64 -5 8 3 12 2 9
-4 -3 -6 3 -11 14 -11 12 -1 27 -2 34 -3 6 -1 14 -3 17 -6 12 -13 144 -59 153
-53 6 3 7 2 4 -4 -3 -5 13 -19 37 -30 32 -16 47 -18 60 -11 15 8 17 8 11 -2
-6 -10 -4 -12 8 -7 9 3 19 1 23 -5 5 -7 2 -8 -6 -3 -9 5 -11 4 -6 -3 4 -7 16
-12 27 -12 11 0 17 -4 14 -10 -3 -5 1 -10 9 -10 17 0 22 -16 8 -22 -4 -1 6
-15 23 -30 21 -18 32 -22 32 -13 0 8 -4 12 -8 9 -4 -2 -10 0 -13 5 -13 20 14
20 33 0 11 -12 31 -21 45 -21 15 0 26 -6 26 -14 0 -8 -6 -14 -12 -14 -9 0 -8
-4 2 -10 22 -14 30 -12 24 8 -5 14 -3 14 10 -2 9 -11 16 -26 16 -33 0 -7 4
-13 9 -13 5 0 7 10 4 23 -4 21 -4 22 11 3 9 -11 16 -26 16 -33 0 -7 4 -13 9
-13 5 0 25 -23 45 -50 20 -28 47 -55 59 -60 13 -5 16 -9 7 -10 -9 0 -6 -5 9
-13 13 -6 25 -21 27 -32 3 -20 3 -20 -12 -1 -11 16 -14 17 -14 4 0 -8 7 -21
15 -28 12 -10 15 -10 15 0 0 9 4 9 18 -1 16 -13 16 -12 2 5 -16 20 -22 46 -11
46 10 0 31 -61 25 -72 -3 -5 0 -7 6 -6 7 2 19 -19 27 -46 11 -36 17 -46 24
-35 7 12 9 12 10 -1 1 -8 1 -18 0 -22 0 -5 3 -8 9 -8 5 0 7 -8 3 -17 -3 -10
-2 -15 2 -10 14 13 55 -103 67 -188 5 -44 12 -82 15 -85 6 -7 0 122 -6 135 -3
6 -6 15 -7 20 -1 6 -7 30 -13 55 -5 24 -8 46 -5 49 2 2 4 -2 5 -10 0 -8 4 -6
8 6 5 13 8 4 9 -29 0 -39 5 -54 26 -73 29 -26 28 -23 31 -76 1 -21 6 -41 10
-45 5 -4 6 1 2 10 -3 9 0 18 6 21 7 3 13 -6 13 -20 2 -27 11 -40 20 -30 4 4 1
13 -6 22 -10 12 -10 15 4 15 11 0 16 -9 16 -26 0 -14 4 -23 8 -20 8 5 12 -47
16 -176 2 -66 16 -41 16 27 0 36 3 65 6 65 3 0 12 -7 20 -15 14 -13 14 -15 0
-15 -9 0 -16 -4 -16 -10 0 -5 7 -7 16 -3 13 5 15 -4 11 -63 -2 -38 -2 -54 0
-36 7 53 23 26 24 -41 0 -34 3 -55 6 -47 3 8 11 18 17 22 8 6 8 8 0 8 -6 0
-11 7 -11 15 0 8 4 15 9 15 4 0 9 33 10 73 1 55 2 61 5 24 2 -26 8 -45 12 -43
7 5 -2 -92 -13 -137 -2 -9 0 -15 5 -11 5 3 9 20 10 37 0 26 2 28 8 12 7 -18 9
-17 14 10 14 70 18 237 8 333 -33 315 -143 603 -326 851 -121 165 -332 338
-530 435 -235 116 -397 156 -655 161 -96 2 -191 1 -210 -1z m-230 -498 c0 -3
-4 -8 -10 -11 -5 -3 -10 -1 -10 4 0 6 5 11 10 11 6 0 10 -2 10 -4z m150 -10
c0 -2 -7 -7 -16 -10 -8 -3 -12 -2 -9 4 6 10 25 14 25 6z m-200 -67 c0 -6 -4
-7 -10 -4 -5 3 -10 1 -10 -6 0 -7 -2 -10 -5 -7 -9 8 6 38 16 32 5 -3 9 -10 9
-15z m40 17 c0 -2 -7 -6 -15 -10 -8 -3 -15 -1 -15 4 0 6 7 10 15 10 8 0 15 -2
15 -4z m967 -59 c7 0 14 -6 17 -14 4 -10 -2 -9 -27 3 -38 19 -50 30 -22 19 11
-4 25 -8 32 -8z m-1276 -46 c-12 -12 -21 -18 -21 -14 0 10 33 44 37 39 3 -2
-5 -14 -16 -25z m24 -42 c-8 -12 -35 -12 -35 0 0 11 22 20 33 14 4 -2 5 -9 2
-14z m1405 -15 c0 -8 -5 -12 -10 -9 -6 4 -8 11 -5 16 9 14 15 11 15 -7z
m-1727 -69 c-3 -9 -8 -14 -10 -11 -3 3 -2 9 2 15 9 16 15 13 8 -4z m1926 -19
c-3 -3 -11 5 -18 17 -13 21 -12 21 5 5 10 -10 16 -20 13 -22z m-1895 -14 c3
-5 -1 -9 -9 -9 -8 0 -12 4 -9 9 3 4 7 8 9 8 2 0 6 -4 9 -8z m1951 -33 c11 -16
1 -19 -13 -3 -7 8 -8 14 -3 14 5 0 13 -5 16 -11z m25 -37 c0 -5 -7 -9 -15 -9
-8 0 -12 4 -9 9 3 4 9 8 15 8 5 0 9 -4 9 -8z m40 -55 c0 -5 -7 -2 -15 7 -8 8
-15 20 -15 27 0 14 29 -20 30 -34z m30 -43 c0 -8 -4 -12 -10 -9 -5 3 -10 13
-10 21 0 8 5 12 10 9 6 -3 10 -13 10 -21z m-2189 -41 c-12 -20 -14 -14 -5 12
4 9 9 14 11 11 3 -2 0 -13 -6 -23z m-18 -38 c-7 -21 -12 -19 -10 4 0 11 5 18
9 15 4 -3 5 -11 1 -19z m-86 -31 c-3 -3 -12 -4 -19 -1 -8 3 -5 6 6 6 11 1 17
-2 13 -5z m70 -14 c2 -22 -12 -35 -22 -20 -3 5 -1 10 4 10 6 0 10 3 10 8 -2
10 0 22 4 22 1 0 3 -9 4 -20z m-103 -64 c-3 -8 -13 -17 -22 -21 -13 -5 -13 -2
3 15 21 24 26 25 19 6z m2490 -31 c3 -8 1 -15 -4 -15 -6 0 -10 7 -10 15 0 8 2
15 4 15 2 0 6 -7 10 -15z m71 -25 c3 -5 1 -10 -4 -10 -6 0 -11 5 -11 10 0 6 2
10 4 10 3 0 8 -4 11 -10z m-2575 -15 c-7 -9 -15 -13 -17 -11 -7 7 7 26 19 26
6 0 6 -6 -2 -15z m2548 -46 c-3 -8 -7 -3 -11 10 -4 17 -3 21 5 13 5 -5 8 -16
6 -23z m149 -261 c-3 -7 -5 -2 -5 12 0 14 2 19 5 13 2 -7 2 -19 0 -25z m-2910
-50 c-3 -8 -6 -5 -6 6 -1 11 2 17 5 13 3 -3 4 -12 1 -19z m2979 -59 c3 -39 2
-50 -5 -39 -11 15 -16 108 -6 98 3 -3 8 -29 11 -59z"/>
<path d="M2403 3529 c-101 -9 -217 -41 -299 -79 -265 -127 -451 -350 -525
-630 -30 -112 -32 -299 -5 -414 41 -177 141 -350 279 -483 264 -253 637 -336
989 -218 127 42 241 111 345 209 199 188 295 404 296 666 2 424 -278 796 -688
915 -68 20 -281 50 -305 44 -3 -1 -42 -5 -87 -10z m451 -538 c283 -139 347
-535 107 -665 -61 -33 -130 -39 -195 -16 -45 14 -125 85 -157 137 l-21 34 -24
-51 c-32 -69 -112 -151 -181 -185 -147 -72 -386 -21 -308 65 16 18 20 18 47 4
48 -25 118 -28 183 -9 46 13 70 28 116 74 50 50 60 68 79 132 29 95 40 108 74
86 14 -10 31 -27 37 -39 7 -13 44 -55 83 -95 82 -82 124 -100 190 -81 88 27
141 120 134 240 -5 94 -34 155 -109 229 -146 144 -356 129 -464 -33 -16 -24
-31 -45 -32 -47 -6 -8 -55 23 -64 40 -7 13 1 30 35 71 88 108 181 150 317 145
74 -3 96 -8 153 -36z m-587 -137 c3 -8 1 -26 -5 -40 -10 -21 -18 -24 -60 -24
-81 0 -144 -25 -189 -73 -81 -88 -95 -201 -35 -297 l29 -46 -24 -30 -24 -29
-23 29 c-65 79 -95 214 -67 305 39 132 169 220 324 221 52 0 69 -4 74 -16z
m333 -124 c24 -24 25 -32 3 -58 -27 -31 -52 -31 -76 0 -19 25 -19 28 -3 52 20
31 49 33 76 6z"/>
<path d="M1624 3308 l-19 -23 23 19 c21 18 27 26 19 26 -2 0 -12 -10 -23 -22z"/>
<path d="M1445 3169 c-4 -6 -5 -12 -2 -15 2 -3 7 2 10 11 7 17 1 20 -8 4z"/>
<path d="M3573 3055 c0 -8 4 -15 9 -15 4 0 8 4 8 9 0 6 -4 12 -8 15 -5 3 -9
-1 -9 -9z"/>
<path d="M1432 3028 c0 -7 -4 -24 -8 -37 -5 -17 -4 -22 5 -17 6 4 9 11 6 16
-3 5 -1 11 5 15 12 7 13 35 2 35 -5 0 -9 -6 -10 -12z"/>
<path d="M3595 3020 c-4 -12 0 -26 9 -36 15 -14 16 -14 16 0 0 9 -4 16 -9 16
-5 0 -7 9 -4 20 7 26 -4 26 -12 0z"/>
<path d="M821 2824 c0 -11 3 -14 6 -6 3 7 2 16 -1 19 -3 4 -6 -2 -5 -13z"/>
<path d="M3822 2650 c0 -14 2 -19 5 -12 2 6 2 18 0 25 -3 6 -5 1 -5 -13z"/>
<path d="M822 2620 c0 -14 2 -19 5 -12 2 6 2 18 0 25 -3 6 -5 1 -5 -13z"/>
<path d="M801 2494 c0 -11 3 -14 6 -6 3 7 2 16 -1 19 -3 4 -6 -2 -5 -13z"/>
<path d="M798 2448 c-2 -13 -1 -34 3 -48 5 -19 7 -14 8 23 1 50 -4 62 -11 25z"/>
<path d="M3905 2421 c-3 -5 -2 -12 3 -15 5 -3 9 1 9 9 0 17 -3 19 -12 6z"/>
<path d="M1071 2404 c0 -11 3 -14 6 -6 3 7 2 16 -1 19 -3 4 -6 -2 -5 -13z"/>
<path d="M4250 2380 c-8 -5 -10 -10 -3 -10 6 0 9 -8 6 -19 -3 -10 0 -22 6 -25
7 -5 11 5 11 28 0 40 1 39 -20 26z"/>
<path d="M801 2324 c0 -11 3 -14 6 -6 3 7 2 16 -1 19 -3 4 -6 -2 -5 -13z"/>
<path d="M756 2305 c-6 -18 -1 -64 14 -110 6 -21 7 -9 3 45 -6 83 -8 88 -17
65z"/>
<path d="M4262 2264 c-1 -29 -11 -96 -22 -149 -24 -116 -24 -118 -5 -81 8 15
15 39 15 53 0 13 5 43 11 66 5 23 8 69 6 102 l-3 60 -2 -51z"/>
<path d="M872 2275 c0 -16 2 -22 5 -12 2 9 2 23 0 30 -3 6 -5 -1 -5 -18z"/>
<path d="M4030 2291 c0 -7 -4 -9 -10 -6 -11 7 -11 -8 0 -45 7 -24 7 -23 15 13
4 21 5 41 1 44 -3 4 -6 1 -6 -6z"/>
<path d="M4291 2244 c0 -11 3 -14 6 -6 3 7 2 16 -1 19 -3 4 -6 -2 -5 -13z"/>
<path d="M3985 2199 c-4 -6 -5 -12 -2 -15 2 -3 7 2 10 11 7 17 1 20 -8 4z"/>
<path d="M4012 2190 c0 -14 2 -19 5 -12 2 6 2 18 0 25 -3 6 -5 1 -5 -13z"/>
<path d="M4142 2110 c0 -14 2 -19 5 -12 2 6 2 18 0 25 -3 6 -5 1 -5 -13z"/>
<path d="M745 2090 c5 -7 12 -27 16 -44 7 -29 8 -29 6 8 -1 24 -8 41 -16 44
-9 3 -11 0 -6 -8z"/>
<path d="M4281 1960 c-10 -67 -10 -84 0 -67 6 9 8 32 6 50 -2 17 -5 25 -6 17z"/>
<path d="M4231 1924 c0 -11 3 -14 6 -6 3 7 2 16 -1 19 -3 4 -6 -2 -5 -13z"/>
<path d="M755 1885 c4 -11 10 -28 12 -37 3 -10 9 -18 14 -18 5 0 2 15 -7 33
-19 38 -30 50 -19 22z"/>
<path d="M4156 1855 c-3 -8 -1 -15 4 -15 6 0 10 7 10 15 0 8 -2 15 -4 15 -2 0
-6 -7 -10 -15z"/>
<path d="M4241 1814 c0 -11 3 -14 6 -6 3 7 2 16 -1 19 -3 4 -6 -2 -5 -13z"/>
<path d="M4132 1782 c-11 -25 -11 -25 4 -10 9 9 15 21 13 27 -2 6 -10 -2 -17
-17z"/>
<path d="M4211 1800 c0 -8 3 -21 8 -28 7 -11 9 -10 14 3 4 9 3 13 -2 10 -5 -3
-12 3 -14 12 -3 13 -5 14 -6 3z"/>
<path d="M4195 1750 c-3 -5 -1 -10 4 -10 6 0 11 5 11 10 0 6 -2 10 -4 10 -3 0
-8 -4 -11 -10z"/>
<path d="M4106 1735 c-3 -8 -1 -15 4 -15 6 0 10 7 10 15 0 8 -2 15 -4 15 -2 0
-6 -7 -10 -15z"/>
<path d="M4073 1665 c-3 -9 -3 -18 -1 -21 3 -3 8 4 11 16 6 23 -1 27 -10 5z"/>
<path d="M4155 1660 c3 -5 8 -10 11 -10 2 0 4 5 4 10 0 6 -5 10 -11 10 -5 0
-7 -4 -4 -10z"/>
<path d="M4120 1646 c0 -2 8 -10 18 -17 15 -13 16 -12 3 4 -13 16 -21 21 -21
13z"/>
<path d="M815 1610 c3 -5 8 -10 11 -10 2 0 4 5 4 10 0 6 -5 10 -11 10 -5 0 -7
-4 -4 -10z"/>
<path d="M4110 1589 c0 -5 5 -7 10 -4 6 3 10 8 10 11 0 2 -4 4 -10 4 -5 0 -10
-5 -10 -11z"/>
<path d="M930 1426 c14 -18 13 -19 -2 -13 -10 3 -18 4 -18 1 0 -6 28 -34 54
-54 18 -14 19 -14 5 8 -8 12 -18 22 -22 22 -5 0 -7 6 -4 14 3 8 -2 20 -11 28
-16 12 -16 11 -2 -6z"/>
<path d="M4160 1431 c0 -8 -7 -11 -15 -7 -17 6 -18 1 -5 -29 7 -18 9 -18 19 9
6 16 9 31 6 34 -3 3 -5 0 -5 -7z"/>
<path d="M4100 1404 c0 -6 -14 -32 -31 -58 -22 -33 -29 -50 -21 -58 7 -7 3
-18 -15 -34 -15 -13 -23 -27 -20 -31 8 -7 51 37 72 75 8 15 21 36 29 47 11 17
11 24 0 45 -8 14 -14 20 -14 14z m10 -52 c-20 -35 -40 -55 -47 -48 -4 4 0 12
10 17 9 6 17 17 17 24 0 8 5 15 11 15 5 0 7 5 3 12 -4 7 -3 8 4 4 8 -5 9 -12
2 -24z"/>
<path d="M1010 1286 c0 -2 7 -7 16 -10 8 -3 12 -2 9 4 -6 10 -25 14 -25 6z"/>
<path d="M3915 1233 l-28 -38 36 34 c39 37 42 41 28 41 -5 0 -21 -17 -36 -37z"/>
<path d="M3959 1183 c-12 -16 -12 -17 2 -6 9 7 20 9 24 5 5 -4 5 -1 1 6 -9 16
-11 15 -27 -5z"/>
<path d="M1200 1067 c0 -2 15 -16 33 -33 l32 -29 -29 33 c-28 30 -36 37 -36
29z"/>
<path d="M3810 1030 c0 -5 -7 -10 -16 -10 -8 0 -12 -4 -9 -10 4 -6 13 -5 25 3
21 13 26 27 10 27 -5 0 -10 -4 -10 -10z"/>
<path d="M3746 992 c-2 -4 4 -8 14 -8 10 0 16 4 14 8 -3 4 -9 8 -14 8 -5 0
-11 -4 -14 -8z"/>
<path d="M3718 953 c-6 -7 -8 -16 -5 -20 4 -3 9 2 13 11 3 9 10 14 14 11 5 -3
11 -2 14 3 9 14 -23 10 -36 -5z"/>
<path d="M3656 912 c-3 -5 1 -9 9 -9 8 0 12 4 9 9 -3 4 -7 8 -9 8 -2 0 -6 -4
-9 -8z"/>
<path d="M3520 880 c0 -5 5 -10 11 -10 5 0 7 5 4 10 -3 6 -8 10 -11 10 -2 0
-4 -4 -4 -10z"/>
<path d="M3583 868 c-13 -6 -23 -15 -23 -20 0 -10 36 7 45 22 7 12 7 12 -22
-2z"/>
<path d="M3535 829 c-9 -14 -2 -20 14 -10 8 6 9 11 3 15 -6 3 -14 1 -17 -5z"/>
<path d="M1604 796 c11 -9 24 -16 30 -16 12 0 7 5 -24 19 -24 11 -24 11 -6 -3z"/>
<path d="M3367 799 c7 -7 15 -10 18 -7 3 3 -2 9 -12 12 -14 6 -15 5 -6 -5z"/>
<path d="M3450 790 c-12 -7 -10 -9 7 -7 12 0 19 5 17 9 -6 10 -6 10 -24 -2z"/>
<path d="M3381 756 c-14 -8 -19 -16 -13 -20 6 -3 17 1 26 10 9 8 20 13 25 9 5
-3 12 -1 16 5 9 14 -25 12 -54 -4z"/>
<path d="M1751 726 c14 -13 69 -35 69 -28 0 9 -44 32 -62 32 -6 0 -9 -2 -7 -4z"/>
<path d="M1860 683 c8 -3 29 -11 47 -19 27 -11 31 -10 26 2 -3 8 -9 12 -13 9
-5 -3 -11 -1 -15 5 -3 5 -18 10 -33 9 -16 0 -21 -3 -12 -6z"/>
<path d="M2028 625 c13 -9 26 -14 29 -11 8 8 3 12 -27 21 l-25 7 23 -17z"/>
<path d="M2075 609 c-4 -5 5 -9 19 -9 14 0 26 4 26 8 0 11 -39 12 -45 1z"/>
<path d="M2130 600 c0 -5 5 -10 11 -10 5 0 7 5 4 10 -3 6 -8 10 -11 10 -2 0
-4 -4 -4 -10z"/>
<path d="M2281 584 c0 -11 3 -14 6 -6 3 7 2 16 -1 19 -3 4 -6 -2 -5 -13z"/>
<path d="M2336 572 c-2 -4 19 -8 47 -10 29 -2 49 -1 47 1 -9 8 -90 15 -94 9z"/>
<path d="M2640 570 l-45 -7 40 -1 c22 -1 47 3 55 8 8 5 11 9 5 8 -5 0 -30 -4
-55 -8z"/>
<path d="M2465 560 c-3 -5 1 -10 10 -10 9 0 13 5 10 10 -3 6 -8 10 -10 10 -2
0 -7 -4 -10 -10z"/>
<path d="M2500 560 c0 -5 9 -10 21 -10 11 0 17 5 14 10 -3 6 -13 10 -21 10 -8
0 -14 -4 -14 -10z"/>
<path d="M420 2496 c0 -2 7 -6 15 -10 8 -3 15 -1 15 4 0 6 -7 10 -15 10 -8 0
-15 -2 -15 -4z"/>
<path d="M560 1749 c0 -5 5 -7 10 -4 6 3 10 8 10 11 0 2 -4 4 -10 4 -5 0 -10
-5 -10 -11z"/>
<path d="M4420 1606 c0 -9 5 -16 10 -16 6 0 10 4 10 9 0 6 -4 13 -10 16 -5 3
-10 -1 -10 -9z"/>
<path d="M4306 1463 c-6 -14 -5 -15 5 -6 7 7 10 15 7 18 -3 3 -9 -2 -12 -12z"/>
<path d="M712 1442 c7 -9 13 -18 14 -20 1 -2 4 4 7 12 3 8 -2 16 -14 19 -17 5
-18 3 -7 -11z"/>
<path d="M4263 1395 c-9 -19 -20 -35 -24 -35 -4 0 -9 -10 -12 -22 -5 -21 -5
-21 7 -6 9 12 16 14 23 7 7 -7 9 -3 6 15 -3 15 -1 26 6 26 6 0 11 7 11 16 0 8
4 13 8 10 5 -3 9 1 9 9 0 26 -17 16 -34 -20z"/>
<path d="M767 1374 c-3 -3 -3 -12 0 -20 4 -10 10 -11 25 -3 17 9 18 13 7 20
-17 10 -24 11 -32 3z"/>
<path d="M785 1330 c-3 -5 1 -10 10 -10 9 0 13 -4 10 -10 -3 -6 1 -7 9 -4 21
8 20 11 -3 24 -13 7 -22 7 -26 0z"/>
<path d="M830 1273 c0 -17 19 -37 27 -29 4 5 2 11 -5 13 -6 3 -10 9 -6 14 3 5
0 9 -5 9 -6 0 -11 -3 -11 -7z"/>
<path d="M4215 1250 c-3 -5 -1 -10 4 -10 6 0 11 5 11 10 0 6 -2 10 -4 10 -3 0
-8 -4 -11 -10z"/>
<path d="M968 1123 c7 -3 16 -2 19 1 4 3 -2 6 -13 5 -11 0 -14 -3 -6 -6z"/>
<path d="M985 1090 c-3 -5 -1 -10 4 -10 6 0 11 5 11 10 0 6 -2 10 -4 10 -3 0
-8 -4 -11 -10z"/>
<path d="M1015 1051 c-3 -5 4 -12 15 -16 11 -3 19 -12 17 -18 -1 -7 8 -12 21
-11 13 0 21 -4 19 -10 -3 -6 1 -17 8 -23 10 -10 14 -9 19 3 3 9 1 12 -4 9 -6
-3 -10 3 -10 14 0 12 -6 21 -14 21 -8 0 -18 5 -22 12 -5 7 -3 8 7 3 12 -8 12
-6 0 8 -15 18 -46 23 -56 8z"/>
<path d="M1126 971 c-4 -5 -2 -12 3 -15 5 -4 12 -2 15 3 4 5 2 12 -3 15 -5 4
-12 2 -15 -3z"/>
<path d="M1448 723 c7 -3 16 -2 19 1 4 3 -2 6 -13 5 -11 0 -14 -3 -6 -6z"/>
<path d="M1060 870 c0 -5 5 -10 11 -10 5 0 7 5 4 10 -3 6 -8 10 -11 10 -2 0
-4 -4 -4 -10z"/>
<path d="M4083 900 c-24 -10 -30 -25 -13 -35 6 -4 7 1 3 11 -5 13 -3 16 9 11
10 -3 19 0 22 9 3 8 4 14 3 13 -1 0 -12 -4 -24 -9z"/>
<path d="M3999 863 c-18 -20 -27 -32 -18 -25 9 6 20 8 24 4 5 -4 5 -1 1 6 -9
16 16 16 32 0 9 -9 12 -9 12 0 0 7 -5 12 -11 12 -6 0 -8 9 -4 20 9 28 4 25
-36 -17z"/>
<path d="M3947 763 c5 -13 3 -15 -13 -9 -15 6 -16 5 -7 -5 10 -10 15 -9 27 1
16 12 13 30 -4 30 -5 0 -6 -8 -3 -17z"/>
<path d="M1175 737 c-10 -8 -14 -16 -9 -19 5 -3 17 3 27 14 20 21 9 24 -18 5z"/>
<path d="M3854 731 c1 -17 26 -28 26 -11 0 6 -4 9 -9 5 -5 -3 -11 0 -14 7 -2
9 -4 8 -3 -1z"/>
<path d="M3812 698 c3 -7 13 -15 24 -17 16 -3 17 -1 5 13 -16 19 -34 21 -29 4z"/>
<path d="M3779 677 c13 -16 13 -19 0 -17 -25 4 -39 0 -39 -10 0 -5 7 -6 17 -3
10 4 14 2 9 -5 -3 -6 -2 -13 3 -16 5 -3 11 1 15 9 3 9 12 12 23 9 14 -5 15 -4
4 4 -8 6 -10 15 -6 23 5 8 5 11 0 7 -4 -4 -15 -2 -24 5 -14 11 -14 10 -2 -6z"/>
<path d="M3698 618 c17 -17 15 -31 -4 -24 -8 3 -12 2 -9 -4 9 -14 31 -12 43 3
8 9 4 15 -16 25 -19 9 -23 9 -14 0z"/>
<path d="M3610 580 c0 -5 5 -10 10 -10 6 0 10 5 10 10 0 6 -4 10 -10 10 -5 0
-10 -4 -10 -10z"/>
<path d="M3661 573 c7 -10 15 -20 16 -22 2 -2 3 3 3 11 0 9 -7 19 -16 22 -15
6 -15 4 -3 -11z"/>
<path d="M1430 561 c0 -6 10 -8 21 -6 33 6 36 15 6 15 -15 0 -27 -4 -27 -9z"/>
<path d="M3626 563 c-11 -3 -27 -12 -35 -21 -15 -14 -14 -15 4 -8 11 5 25 9
32 9 7 0 14 6 17 14 3 7 4 12 3 12 -1 -1 -11 -4 -21 -6z"/>
<path d="M3554 532 c3 -6 -2 -13 -11 -15 -16 -4 -16 -5 -1 -6 21 -1 32 15 17
25 -7 4 -9 3 -5 -4z"/>
<path d="M3440 470 c0 -5 5 -10 10 -10 6 0 10 5 10 10 0 6 -4 10 -10 10 -5 0
-10 -4 -10 -10z"/>
<path d="M3475 470 c-3 -5 -1 -10 4 -10 6 0 11 5 11 10 0 6 -2 10 -4 10 -3 0
-8 -4 -11 -10z"/>
<path d="M3331 456 c-24 -13 -24 -14 -3 -25 25 -13 43 -15 23 -2 -12 8 -12 12
-2 25 16 19 13 19 -18 2z"/>
<path d="M3375 439 c-11 -16 -1 -19 13 -3 7 8 8 14 3 14 -5 0 -13 -5 -16 -11z"/>
<path d="M3143 385 c0 -8 4 -12 9 -9 4 3 8 9 8 15 0 5 -4 9 -8 9 -5 0 -9 -7
-9 -15z"/>
<path d="M3090 374 c-17 -9 -20 -14 -9 -14 9 0 22 7 29 15 15 18 13 18 -20 -1z"/>
<path d="M3116 352 c-3 -5 1 -9 9 -9 8 0 15 4 15 9 0 4 -4 8 -9 8 -6 0 -12 -4
-15 -8z"/>
</g>
</svg>
